<svg width="100" height="104" viewBox="0 0 100 104" fill="none" xmlns="http://www.w3.org/2000/svg">
<path d="M87.7138 84.8327C45.1794 105.075 18.7821 88.1389 1.88437 77.852C0.83874 77.2037 -0.938459 78.0036 0.603504 79.7747C6.23299 86.6006 24.682 103.053 48.7633 103.053C72.8612 103.053 87.1972 89.904 88.9906 87.6103C90.7718 85.3359 89.5136 84.0813 87.7133 84.8327H87.7138ZM99.6594 78.2356C98.5172 76.7482 92.7139 76.4709 89.0617 76.9196C85.4038 77.3553 79.9134 79.5908 80.3907 80.9331C80.6357 81.4359 81.1357 81.2104 83.6485 80.9845C86.1682 80.733 93.2268 79.8422 94.6976 81.7649C96.1753 83.701 92.4463 92.9237 91.7653 94.4111C91.1073 95.8985 92.0167 96.282 93.2527 95.2914C94.4717 94.3011 96.6786 91.7366 98.1595 88.1074C99.6303 84.4584 100.528 79.3681 99.6594 78.2356Z" fill="#FF9900"/>
<path fill-rule="evenodd" clip-rule="evenodd" d="M59.114 43.5274C59.114 48.8388 59.2482 53.2683 56.5636 57.9851C54.3968 61.8204 50.9645 64.1788 47.1296 64.1788C41.8946 64.1788 38.8458 60.1903 38.8458 54.3038C38.8458 42.6835 49.2576 40.5745 59.114 40.5745V43.5274ZM72.8624 76.7579C71.961 77.563 70.6571 77.6208 69.641 77.0836C65.1158 73.3255 64.3102 71.5807 61.8176 67.9947C54.3394 75.6266 49.047 77.9082 39.3446 77.9082C27.8778 77.9082 18.9421 70.8325 18.9421 56.6622C18.9421 45.5985 24.9443 38.0625 33.4766 34.3811C40.8784 31.121 51.2138 30.5458 59.114 29.6449V27.8806C59.114 24.6399 59.363 20.805 57.465 18.0056C55.7965 15.4936 52.6135 14.4581 49.8138 14.4581C44.6176 14.4581 39.9771 17.1233 38.8458 22.6456C38.6154 23.8732 37.7145 25.0813 36.4874 25.1387L23.2564 23.72C22.1445 23.4702 20.9174 22.5693 21.2242 20.8624C24.2729 4.83243 38.7496 0 51.7118 0C58.3465 0 67.0134 1.76427 72.2484 6.78828C78.8831 12.9816 78.2502 21.246 78.2502 30.2391V51.485C78.2502 57.8703 80.8963 60.6697 83.389 64.1214C84.2709 65.3485 84.4629 66.8254 83.3506 67.7454C80.5702 70.0654 75.623 74.38 72.9004 76.7963L72.862 76.7579" fill="black"/>
<path d="M87.7138 84.8327C45.1794 105.075 18.7821 88.1389 1.88437 77.852C0.83874 77.2037 -0.938459 78.0036 0.603504 79.7747C6.23299 86.6006 24.682 103.053 48.7633 103.053C72.8612 103.053 87.1972 89.904 88.9906 87.6103C90.7718 85.3359 89.5136 84.0813 87.7133 84.8327H87.7138ZM99.6594 78.2356C98.5172 76.7482 92.7139 76.4709 89.0617 76.9196C85.4038 77.3553 79.9134 79.5908 80.3907 80.9331C80.6357 81.4359 81.1357 81.2104 83.6485 80.9845C86.1682 80.733 93.2268 79.8422 94.6976 81.7649C96.1753 83.701 92.4463 92.9237 91.7653 94.4111C91.1073 95.8985 92.0167 96.282 93.2527 95.2914C94.4717 94.3011 96.6786 91.7366 98.1595 88.1074C99.6303 84.4584 100.528 79.3681 99.6594 78.2356Z" fill="#FF9900"/>
<path fill-rule="evenodd" clip-rule="evenodd" d="M59.114 43.5274C59.114 48.8388 59.2482 53.2683 56.5636 57.9851C54.3968 61.8204 50.9645 64.1788 47.1296 64.1788C41.8946 64.1788 38.8458 60.1903 38.8458 54.3038C38.8458 42.6835 49.2576 40.5745 59.114 40.5745V43.5274ZM72.8624 76.7579C71.961 77.563 70.6571 77.6208 69.641 77.0836C65.1158 73.3255 64.3102 71.5807 61.8176 67.9947C54.3394 75.6266 49.047 77.9082 39.3446 77.9082C27.8778 77.9082 18.9421 70.8325 18.9421 56.6622C18.9421 45.5985 24.9443 38.0625 33.4766 34.3811C40.8784 31.121 51.2138 30.5458 59.114 29.6449V27.8806C59.114 24.6399 59.363 20.805 57.465 18.0056C55.7965 15.4936 52.6135 14.4581 49.8138 14.4581C44.6176 14.4581 39.9771 17.1233 38.8458 22.6456C38.6154 23.8732 37.7145 25.0813 36.4874 25.1387L23.2564 23.72C22.1445 23.4702 20.9174 22.5693 21.2242 20.8624C24.2729 4.83243 38.7496 0 51.7118 0C58.3465 0 67.0134 1.76427 72.2484 6.78828C78.8831 12.9816 78.2502 21.246 78.2502 30.2391V51.485C78.2502 57.8703 80.8963 60.6697 83.389 64.1214C84.2709 65.3485 84.4629 66.8254 83.3506 67.7454C80.5702 70.0654 75.623 74.38 72.9004 76.7963L72.862 76.7579" fill="black"/>
</svg>
