<svg width="100" height="78" viewBox="0 0 100 78" fill="none" xmlns="http://www.w3.org/2000/svg">
<mask id="mask0_19_198" style="mask-type:luminance" maskUnits="userSpaceOnUse" x="0" y="0" width="100" height="78">
<path d="M100 0H0V77.4648H100V0Z" fill="white"/>
</mask>
<g mask="url(#mask0_19_198)">
<path d="M84.6542 6.89828C78.2806 3.97378 71.4458 1.81913 64.2996 0.585072C64.1694 0.561255 64.0394 0.620775 63.9724 0.739817C63.0934 2.30321 62.1197 4.34279 61.4379 5.94589C53.7517 4.79518 46.1049 4.79518 38.5763 5.94589C37.8944 4.30716 36.8854 2.30321 36.0024 0.739817C35.9354 0.624746 35.8054 0.565227 35.6752 0.585072C28.533 1.81518 21.6982 3.96983 15.3206 6.89828C15.2654 6.92209 15.218 6.9618 15.1866 7.01335C2.22247 26.3815 -1.32896 45.2736 0.413251 63.9315C0.421134 64.0228 0.472374 64.1101 0.543325 64.1656C9.0967 70.447 17.3821 74.2604 25.5137 76.788C25.6438 76.8277 25.7817 76.7801 25.8645 76.6729C27.788 74.0462 29.5027 71.2765 30.9728 68.3638C31.0596 68.1932 30.9768 67.9908 30.7994 67.9234C28.0797 66.8917 25.49 65.6338 22.9989 64.2053C22.8018 64.0903 22.7861 63.8084 22.9673 63.6735C23.4916 63.2807 24.0159 62.8719 24.5165 62.4593C24.607 62.3839 24.7332 62.368 24.8397 62.4156C41.2054 69.8876 58.9231 69.8876 75.0956 62.4156C75.2021 62.3641 75.3283 62.38 75.4228 62.4553C75.9235 62.868 76.4477 63.2807 76.9759 63.6735C77.1572 63.8084 77.1454 64.0903 76.9483 64.2053C74.4572 65.6615 71.8675 66.8917 69.1438 67.9194C68.9665 67.9869 68.8876 68.1932 68.9744 68.3638C70.4761 71.2724 72.1907 74.0421 74.0787 76.669C74.1576 76.7801 74.2994 76.8277 74.4296 76.788C82.6006 74.2604 90.8859 70.447 99.4393 64.1656C99.5142 64.1101 99.5615 64.0267 99.5694 63.9355C101.655 42.3649 96.077 23.6277 84.7842 7.0173C84.7566 6.9618 84.7094 6.92209 84.6542 6.89828ZM33.4168 52.5708C28.4896 52.5708 24.4297 48.0473 24.4297 42.4919C24.4297 36.9366 28.4108 32.4131 33.4168 32.4131C38.462 32.4131 42.4825 36.9763 42.4037 42.4919C42.4037 48.0473 38.4225 52.5708 33.4168 52.5708ZM66.6448 52.5708C61.7177 52.5708 57.6579 48.0473 57.6579 42.4919C57.6579 36.9366 61.6389 32.4131 66.6448 32.4131C71.6901 32.4131 75.7106 36.9763 75.6318 42.4919C75.6318 48.0473 71.6901 52.5708 66.6448 52.5708Z" fill="#5865F2"/>
</g>
</svg>
