<svg width="100" height="98" viewBox="0 0 100 98" fill="none" xmlns="http://www.w3.org/2000/svg">
<path fill-rule="evenodd" clip-rule="evenodd" d="M50.0414 0C22.3698 0 0 22.4582 0 50.2421C0 72.4513 14.3331 91.2509 34.2169 97.9047C36.7029 98.4049 37.6135 96.8236 37.6135 95.4935C37.6135 94.3287 37.5315 90.3362 37.5315 86.1763C23.6112 89.1715 20.7125 80.1871 20.7125 80.1871C18.4754 74.3643 15.1607 72.8678 15.1607 72.8678C10.6046 69.79 15.4926 69.79 15.4926 69.79C20.5465 70.1228 23.1984 74.9472 23.1984 74.9472C27.6716 82.5994 34.8796 80.4372 37.7794 79.1061C38.1932 75.8619 39.5197 73.6161 40.9281 72.3686C29.8257 71.2039 18.1445 66.8786 18.1445 47.5798C18.1445 42.0898 20.1317 37.5982 23.2804 34.1049C22.7836 32.8574 21.0433 27.6992 23.7782 20.7953C23.7782 20.7953 28.0035 19.4641 37.5305 25.9525C41.6094 24.8528 45.8159 24.2933 50.0414 24.2886C54.2666 24.2886 58.5738 24.8715 62.5512 25.9525C72.0793 19.4641 76.3045 20.7953 76.3045 20.7953C79.0394 27.6992 77.2981 32.8574 76.8013 34.1049C80.033 37.5982 81.9382 42.0898 81.9382 47.5798C81.9382 66.8786 70.257 71.1201 59.0716 72.3686C60.8949 73.9489 62.4682 76.9429 62.4682 81.6847C62.4682 88.4222 62.3863 93.8295 62.3863 95.4924C62.3863 96.8236 63.2979 98.4049 65.7829 97.9057C85.6667 91.2499 99.9998 72.4513 99.9998 50.2421C100.082 22.4582 77.63 0 50.0414 0Z" fill="#24292F"/>
</svg>
