<svg width="100" height="100" viewBox="0 0 100 100" fill="none" xmlns="http://www.w3.org/2000/svg">
<path d="M1.22541 61.5228C1.00291 60.5743 2.13289 59.9769 2.82179 60.6658L39.3342 97.1782C40.0231 97.8671 39.4257 98.9971 38.4772 98.7746C20.0515 94.4522 5.54779 79.9485 1.22541 61.5228ZM0.00189135 46.8891C-0.0157524 47.1724 0.0907635 47.449 0.291463 47.6497L52.3503 99.7085C52.551 99.9092 52.8276 100.016 53.1109 99.9981C55.4801 99.8505 57.8047 99.5381 60.0733 99.0722C60.8378 98.9152 61.1034 97.9759 60.5515 97.4241L2.57595 39.4485C2.02409 38.8966 1.08478 39.1622 0.927776 39.9267C0.461861 42.1953 0.149456 44.5199 0.00189135 46.8891ZM4.21093 29.7054C4.04444 30.0792 4.12924 30.516 4.41858 30.8054L69.1946 95.5814C69.484 95.8708 69.9208 95.9556 70.2946 95.7891C72.0807 94.9935 73.8117 94.0964 75.4801 93.1051C76.0322 92.7771 76.1174 92.0184 75.6633 91.5644L8.43566 24.3367C7.98157 23.8826 7.22295 23.9678 6.89492 24.5199C5.9036 26.1883 5.00649 27.9193 4.21093 29.7054ZM12.6587 18.074C12.2886 17.7039 12.2657 17.1103 12.6144 16.7199C21.7795 6.45931 35.1114 0 49.9519 0C77.5927 0 100 22.4073 100 50.0481C100 64.8886 93.5407 78.2205 83.2801 87.3856C82.8898 87.7343 82.2961 87.7114 81.9259 87.3413L12.6587 18.074Z" fill="#222326"/>
</svg>
