<svg width="100" height="105" viewBox="0 0 100 105" fill="none" xmlns="http://www.w3.org/2000/svg">
<path d="M6.34391 4.58387L64.1068 0.257453C71.1185 -0.408148 72.9549 0.0910532 77.4624 3.25266L95.9933 16.2319C98.9983 18.3951 100 19.0607 100 21.5567V92.6097C100 97.1025 98.3305 99.7649 92.6544 100.098L25.5426 104.091C21.202 104.258 19.1987 103.759 17.0284 100.93L3.50584 83.4577C1.00167 80.1297 0 77.8001 0 74.9713V11.7391C0 8.07827 1.66945 4.91667 6.34391 4.58387Z" fill="white"/>
<path fill-rule="evenodd" clip-rule="evenodd" d="M64.1068 0.257443L6.34391 4.58385C1.66945 4.91666 0 8.07826 0 11.7391V74.9712C0 77.8 1.00167 80.2961 3.50584 83.4577L17.0284 101.096C19.1987 103.925 21.3689 104.591 25.5426 104.258L92.6544 100.264C98.3305 99.9313 100 97.2689 100 92.7761V21.5567C100 19.2271 99.1653 18.5615 96.3272 16.5647C96.1603 16.3983 95.9933 16.3983 95.8264 16.2319L77.4624 3.41905C73.1219 0.0910426 71.2855 -0.241758 64.1068 0.257443ZM27.0451 20.3919C21.5359 20.7247 20.3673 20.8911 17.1953 18.2287L9.34891 12.0719C8.51419 11.2399 8.84808 10.2415 11.0184 10.0751L66.611 6.08146C71.2855 5.74866 73.6227 7.24626 75.4591 8.74386L84.975 15.5663C85.4758 15.7327 86.4775 16.8975 85.1419 16.8975L27.7129 20.3919H27.0451ZM20.7012 92.1105V31.7071C20.7012 29.0447 21.5359 27.8799 23.8731 27.7135L89.8164 23.8863C91.9866 23.7199 92.9883 25.0511 92.9883 27.7135V87.6177C92.9883 90.2801 92.4875 92.4433 88.9816 92.6097L25.8765 96.2705C22.3706 96.6033 20.7012 95.2721 20.7012 92.1105ZM82.9716 35.0351C83.3055 36.8655 82.9716 38.6959 81.1352 38.8623L78.1302 39.528V84.1233C75.4591 85.6209 73.1219 86.2865 71.1185 86.2865C67.9466 86.2865 67.1119 85.2881 64.6077 82.2929L44.5743 51.0096V81.1281L50.9182 82.6257C50.9182 82.6257 50.9182 86.2865 45.9098 86.2865L31.8865 87.1185C31.5526 86.2865 31.8865 84.2897 33.222 83.9569L36.8948 82.9585V43.0224L31.8865 42.5232C31.5526 40.6928 32.5543 38.0303 35.3923 37.8639L50.4174 36.8655L71.1185 68.4816V40.5263L65.7763 39.8607C65.4424 37.6975 66.9449 36.0335 68.9482 35.8671L82.9716 35.0351Z" fill="black"/>
</svg>
