<svg width="100" height="100" viewBox="14 14 72 72" fill="none" xmlns="http://www.w3.org/2000/svg">
<path d="M42.1721 40.9043V34.5733C42.1721 34.0401 42.3722 33.6401 42.8385 33.3739L55.5674 26.0433C57.3 25.0438 59.366 24.5775 61.4982 24.5775C69.495 24.5775 74.5601 30.7753 74.5601 37.3725C74.5601 37.8389 74.5601 38.3721 74.4933 38.9053L61.2982 31.1747C60.4986 30.7085 59.6986 30.7085 58.899 31.1747L42.1721 40.9043ZM71.8942 65.5618V50.4339C71.8942 49.5007 71.494 48.8343 70.6946 48.3679L53.9676 38.6383L59.4322 35.506C59.8986 35.2397 60.2986 35.2397 60.765 35.506L73.4938 42.8365C77.1593 44.9693 79.6247 49.5007 79.6247 53.8988C79.6247 58.9633 76.6261 63.6285 71.8942 65.5613V65.5618ZM38.2403 52.2336L32.7757 49.035C32.3095 48.7688 32.1093 48.3686 32.1093 47.8354V33.1745C32.1093 26.044 37.5739 20.6457 44.9713 20.6457C47.7706 20.6457 50.369 21.5789 52.5688 23.2449L39.4404 30.8422C38.641 31.3085 38.241 31.9749 38.241 32.9082V52.2342L38.2403 52.2336ZM50.0026 59.0308L42.1721 54.6326V45.3032L50.0026 40.905L57.8326 45.3032V54.6326L50.0026 59.0308ZM55.034 79.2901C52.2349 79.2901 49.6364 78.3569 47.4367 76.6911L60.5649 69.0936C61.3645 68.6274 61.7645 67.961 61.7645 67.0276V47.7017L67.296 50.9003C67.7622 51.1665 67.9624 51.5665 67.9624 52.0999V66.7608C67.9624 73.8913 62.4308 79.2896 55.034 79.2896V79.2901ZM39.2399 64.4292L26.511 57.0988C22.8454 54.9658 20.38 50.4346 20.38 46.0364C20.38 40.905 23.4456 36.3068 28.1768 34.374V49.5682C28.1768 50.5014 28.577 51.1678 29.3764 51.6342L46.0371 61.2968L40.5725 64.4292C40.1063 64.6954 39.7061 64.6954 39.2399 64.4292ZM38.5072 75.3583C30.9767 75.3583 25.4453 69.6938 25.4453 62.6964C25.4453 62.1632 25.5121 61.63 25.5783 61.0968L38.7067 68.6942C39.5061 69.1606 40.3063 69.1606 41.1057 68.6942L57.8326 59.0315V65.3625C57.8326 65.8957 57.6326 66.2957 57.1663 66.5619L44.4375 73.8925C42.7047 74.8921 40.6388 75.3583 38.5065 75.3583H38.5072ZM55.034 83.2883C63.0978 83.2883 69.8282 77.5574 71.3615 69.96C78.8253 68.0272 83.6235 61.0299 83.6235 53.8995C83.6235 49.2343 81.6245 44.7031 78.0257 41.4375C78.3589 40.0379 78.5589 38.6383 78.5589 37.2395C78.5589 27.7099 70.8283 20.5788 61.8982 20.5788C60.0993 20.5788 58.3665 20.845 56.6338 21.4451C53.6344 18.5128 49.5026 16.647 44.9713 16.647C36.9076 16.647 30.1772 22.3778 28.6439 29.9751C21.1801 31.9079 16.382 38.9053 16.382 46.0357C16.382 50.7008 18.381 55.2321 21.9797 58.4976C21.6465 59.8972 21.4465 61.2968 21.4465 62.6958C21.4465 72.2254 29.1771 79.3564 38.1071 79.3564C39.9061 79.3564 41.6389 79.0901 43.3717 78.49C46.3703 81.4224 50.5021 83.2883 55.034 83.2883Z" fill="black"/>
</svg>
