<svg width="100" height="141" viewBox="0 0 100 141" fill="none" xmlns="http://www.w3.org/2000/svg">
<path fill-rule="evenodd" clip-rule="evenodd" d="M39.8427 41.9901C39.8427 35.9475 44.8814 33.6234 53.2282 33.6234C65.1966 33.6234 80.3148 37.187 92.2826 43.5395V7.12775C79.212 2.01421 66.2987 0 53.2282 0C21.2596 0 0 16.4241 0 43.8499C0 86.6142 59.8418 79.7969 59.8418 98.2352C59.8418 105.363 53.5426 107.686 44.7241 107.686C31.6536 107.686 14.9599 102.419 1.7327 95.2913V132.168C16.3776 138.366 31.1808 141 44.7241 141C77.4804 141 100 125.041 100 97.3061C99.8422 51.1321 39.8427 59.3444 39.8427 41.9901Z" fill="#635BFF"/>
</svg>
