<svg width="100" height="123" viewBox="0 0 100 123" fill="none" xmlns="http://www.w3.org/2000/svg">
<path d="M96.8675 41.9479C88.6747 47.0106 83.6145 55.6895 83.6145 65.3327C83.6145 76.1813 90.1205 86.0656 100 90.1639C98.0723 96.432 95.1807 102.218 91.5663 107.522C86.2651 114.995 80.7229 122.71 72.5301 122.71C64.3374 122.71 61.9277 117.888 52.2892 117.888C42.8916 117.888 39.5181 122.951 31.8072 122.951C24.0964 122.951 18.7952 115.959 12.7711 107.281C4.81928 95.2266 0.240964 81.244 0 66.5381C0 42.6712 15.4217 29.8939 30.8434 29.8939C39.0361 29.8939 45.7831 35.1977 50.8434 35.1977C55.6627 35.1977 63.3735 29.6528 72.5301 29.6528C82.1687 29.4118 91.3253 33.9923 96.8675 41.9479ZM68.1928 19.5275C72.2892 14.7059 74.4578 8.67888 74.6988 2.4108C74.6988 1.68756 74.6988 0.72324 74.4578 0C67.4699 0.72324 60.9639 4.09836 56.3855 9.40212C52.2892 13.9826 49.8795 19.7686 49.6386 26.0366C49.6386 26.7599 49.6386 27.4831 49.8795 28.2064C50.3615 28.2064 51.0843 28.4474 51.5663 28.4474C58.0723 27.9653 64.0964 24.5902 68.1928 19.5275Z" fill="black"/>
</svg>
