<svg width="100" height="46" viewBox="0 0 100 46" fill="none" xmlns="http://www.w3.org/2000/svg">
<path d="M91.6764 26.8226L79.1032 19.6192L76.9343 18.6822L25.4982 19.0628V45.1241L91.6764 45.1534V26.8226Z" fill="white"/>
<path d="M68.7866 42.7522C69.4021 40.6439 69.1676 38.7112 68.1418 37.2764C67.204 35.9587 65.6213 35.1974 63.7163 35.1095L27.6377 34.641C27.4033 34.641 27.1981 34.5239 27.0809 34.3482C26.9637 34.1725 26.9343 33.9382 26.993 33.704C27.1102 33.3526 27.4619 33.089 27.8429 33.0598L64.2438 32.5912C68.5522 32.3863 73.2415 28.9017 74.8828 24.6264L76.9636 19.2092C77.0516 18.975 77.0809 18.7407 77.0223 18.5064C74.6776 7.90623 65.211 0 53.898 0C43.4642 0 34.6131 6.73493 31.4478 16.076C29.3962 14.5533 26.7878 13.7334 23.9742 13.997C18.9625 14.4948 14.9472 18.5064 14.449 23.5137C14.3318 24.8021 14.4197 26.0613 14.7128 27.2326C6.53576 27.4668 0 34.1432 0 42.3715C0 43.1036 0.0586166 43.8357 0.146542 44.5677C0.205158 44.9191 0.49824 45.1826 0.84994 45.1826H67.4384C67.8195 45.1826 68.1712 44.9191 68.2884 44.5384L68.7866 42.7522Z" fill="#F38020"/>
<path d="M80.2755 19.5899C79.9531 19.5899 79.6014 19.5899 79.279 19.6192C79.0445 19.6192 78.8394 19.7949 78.7515 20.0291L77.3447 24.9193C76.7292 27.0276 76.9636 28.9602 77.9894 30.3951C78.9273 31.7128 80.51 32.4741 82.415 32.5619L90.0938 33.0305C90.3282 33.0305 90.5334 33.1476 90.6506 33.3233C90.7679 33.499 90.7972 33.7625 90.7386 33.9675C90.6213 34.3189 90.2696 34.5824 89.8886 34.6117L81.8874 35.0802C77.5498 35.2852 72.8898 38.7698 71.2485 43.045L70.6624 44.5384C70.5451 44.8312 70.7503 45.1241 71.0727 45.1241H98.5639C98.8863 45.1241 99.1794 44.9191 99.2673 44.597C99.7362 42.8986 100 41.1124 100 39.2676C100 28.4039 91.1782 19.5899 80.2755 19.5899Z" fill="#FAAE40"/>
</svg>
