<svg width="100" height="107" viewBox="0 0 100 107" fill="none" xmlns="http://www.w3.org/2000/svg">
<path d="M93.9716 44.2709L49.6454 69.4168L2.48227 42.5001L0.354605 43.5626V63.0418L50 91.021L94.3262 65.8751V76.146L50 101.292L2.83688 74.3751L0.709223 75.4376V78.6251L50.3546 106.604L100 78.6251V60.2084L97.8723 59.1459L50.3546 86.0626L6.02837 60.9168V50.6459L50.3546 75.7918L100 47.8126V27.9792L97.5177 26.5625L50.3546 53.1251L7.80142 29.3959L49.6454 5.66668L84.3972 25.1459L87.5887 23.375V21.25L49.6454 0L0 27.9792V30.8125L49.6454 58.7918L93.9716 33.6459V44.2709Z" fill="#FF3621"/>
</svg>
