<svg width="100" height="150" viewBox="0 0 100 150" fill="none" xmlns="http://www.w3.org/2000/svg">
<path d="M50 74.9999C50 61.193 61.1928 49.9999 75 49.9999C88.8069 49.9999 100 61.193 100 74.9999C100 88.8071 88.8069 99.9999 75 99.9999C61.1928 99.9999 50 88.8071 50 74.9999Z" fill="#1ABCFE"/>
<path d="M0 125C0 111.193 11.1929 99.9999 25 99.9999H50V125C50 138.807 38.8072 150 25 150C11.1929 150 0 138.807 0 125Z" fill="#0ACF83"/>
<path d="M50 6.10352e-05V49.9999H75C88.8072 49.9999 100 38.8071 100 25C100 11.1929 88.8072 6.10352e-05 75 6.10352e-05H50Z" fill="#FF7262"/>
<path d="M0 25C0 38.8071 11.1929 49.9999 25 49.9999H50V0H25C11.1929 0 0 11.1929 0 25Z" fill="#F24E1E"/>
<path d="M0 74.9999C0 88.8071 11.1929 99.9999 25 99.9999H50V49.9999H25C11.1929 49.9999 0 61.193 0 74.9999Z" fill="#A259FF"/>
</svg>
