<svg width="100" height="71" viewBox="0 0 100 71" fill="none" xmlns="http://www.w3.org/2000/svg">
<path d="M28.5662 0H14.2827V14.1267H28.5662V0Z" fill="#FFD800"/>
<path d="M85.7071 0H71.4237V14.1267H85.7071V0Z" fill="#FFD800"/>
<path d="M42.8497 14.1251H14.2827V28.2517H42.8497V14.1251Z" fill="#FFAF00"/>
<path d="M85.7079 14.1251H57.141V28.2517H85.7079V14.1251Z" fill="#FFAF00"/>
<path d="M85.7087 28.2509H14.2827V42.3768H85.7087V28.2509Z" fill="#FF8205"/>
<path d="M28.5662 42.3807H14.2827V56.5074H28.5662V42.3807Z" fill="#FA500F"/>
<path d="M57.1371 42.3807H42.8536V56.5074H57.1371V42.3807Z" fill="#FA500F"/>
<path d="M85.7071 42.3807H71.4237V56.5074H85.7071V42.3807Z" fill="#FA500F"/>
<path d="M42.859 56.516H0V70.6426H42.859V56.516Z" fill="#E10500"/>
<path d="M100 56.516H57.141V70.6426H100V56.516Z" fill="#E10500"/>
</svg>
