<svg width="100" height="67" viewBox="0 0 100 67" fill="none" xmlns="http://www.w3.org/2000/svg">
<path d="M37.2933 19.7014V13.7665C37.9057 13.7053 38.4568 13.7053 39.0692 13.7053C55.4195 13.2159 66.1359 27.7778 66.1359 27.7778C66.1359 27.7778 54.5622 43.7469 42.131 43.7469C40.4776 43.7469 38.8855 43.5022 37.2933 42.9515V24.9021C43.662 25.6975 44.9479 28.4508 48.7446 34.814L57.2566 27.6554C57.2566 27.6554 51.0104 19.5179 40.6001 19.5179C39.4979 19.5179 38.3956 19.5791 37.2933 19.7014ZM37.2933 0V8.87176L39.0692 8.74939C61.7881 7.95399 76.6075 27.3495 76.6075 27.3495C76.6075 27.3495 59.5836 48.091 41.8861 48.091C40.3552 48.091 38.8242 47.9687 37.2933 47.6628V53.1694C38.5181 53.2917 39.804 53.4141 41.09 53.4141C57.5628 53.4141 69.504 44.9706 81.0778 35.0587C82.9761 36.5884 90.8144 40.3206 92.4678 41.9114C81.5064 51.0891 55.9094 58.4924 41.3962 58.4924C39.9877 58.4924 38.7018 58.4312 37.3546 58.2477V66.0793H100V0C100 0 37.2933 0 37.2933 0ZM37.2933 43.0127V47.7239C22.0453 44.9706 17.82 29.1238 17.82 29.1238C17.82 29.1238 25.1684 21.0475 37.2933 19.7014V24.8409H37.2321C30.8634 24.0455 25.842 30.0416 25.842 30.0416C25.842 30.0416 28.7201 40.0759 37.2933 43.0127ZM10.2266 28.4508C10.2266 28.4508 19.2284 15.1126 37.2933 13.7665V8.93294C17.2688 10.5237 0 27.4107 0 27.4107C0 27.4107 9.79792 55.7391 37.2933 58.3089V53.1694C17.0851 50.6608 10.2266 28.4508 10.2266 28.4508Z" fill="#76B900"/>
</svg>
