<svg width="100" height="114" viewBox="0 0 100 114" fill="none" xmlns="http://www.w3.org/2000/svg">
<path fill-rule="evenodd" clip-rule="evenodd" d="M87.5876 21.8143C87.5046 21.2425 87.0066 20.929 86.5917 20.8921C86.1767 20.8552 78.1169 20.7353 78.1169 20.7353C78.1169 20.7353 71.3667 14.1879 70.7027 13.5147C70.0387 12.8508 68.7385 13.0536 68.2313 13.2012C68.2221 13.2012 66.9679 13.5977 64.8377 14.2525C64.4873 13.0998 63.9616 11.6888 63.2147 10.2687C60.817 5.68552 57.2944 3.26022 53.0432 3.25099C53.0339 3.25099 53.0339 3.25099 53.0247 3.25099C52.7296 3.25099 52.4345 3.27866 52.1394 3.30632C52.0103 3.15878 51.8904 3.01123 51.7521 2.86368C49.8986 0.881019 47.5286 -0.0780364 44.6791 0.00495885C39.1922 0.161728 33.7237 4.12705 29.2881 11.1724C26.1712 16.1245 23.792 22.3491 23.1188 27.1721C16.8204 29.1271 12.4124 30.4919 12.311 30.5195C9.12947 31.5155 9.02803 31.6169 8.61306 34.614C8.32719 36.8733 0 101.25 0 101.25L69.7621 113.312L100 105.796C100 105.796 87.6614 22.386 87.5876 21.8143ZM61.3427 15.3314C59.7381 15.8294 57.9122 16.3919 55.9295 17.0098C55.8927 14.234 55.5607 10.3609 54.2604 7.02266C58.4286 7.80651 60.4758 12.5188 61.3427 15.3314ZM52.2778 18.144C48.626 19.2783 44.633 20.514 40.6308 21.7497C41.7558 17.4432 43.8952 13.1459 46.5142 10.3333C47.4917 9.28198 48.8565 8.12005 50.4703 7.45608C51.9919 10.6191 52.3146 15.1101 52.2778 18.144ZM44.799 3.65675C46.09 3.62908 47.1689 3.91496 48.1003 4.52359C46.6156 5.28899 45.1863 6.39559 43.8399 7.83417C40.3541 11.5782 37.6798 17.3786 36.6193 22.9854C33.2995 24.009 30.0443 25.0234 27.0564 25.9456C28.9377 17.1296 36.3335 3.89651 44.799 3.65675Z" fill="#95BF47"/>
<path fill-rule="evenodd" clip-rule="evenodd" d="M86.5917 20.8921C86.1767 20.8552 78.1169 20.7353 78.1169 20.7353C78.1169 20.7353 71.3667 14.1879 70.7027 13.5147C70.4537 13.2657 70.1217 13.1366 69.7621 13.0813V113.303L99.9908 105.787C99.9908 105.787 87.6522 22.386 87.5784 21.8142C87.5138 21.2425 87.0066 20.929 86.5917 20.8921Z" fill="#5E8E3E"/>
<path fill-rule="evenodd" clip-rule="evenodd" d="M53.0064 36.4398L49.4929 49.5807C49.4929 49.5807 45.5737 47.8009 40.9352 48.0868C34.1296 48.5202 34.0558 52.8083 34.1203 53.8873C34.4892 59.7615 49.9448 61.0433 50.8208 74.8113C51.5032 85.6375 45.0757 93.0426 35.8171 93.6327C24.705 94.3336 18.5818 87.777 18.5818 87.777L20.9333 77.7622C20.9333 77.7622 27.0934 82.4099 32.0178 82.0964C35.2362 81.8935 36.3889 79.2746 36.269 77.421C35.7895 69.7578 23.1926 70.2096 22.3996 57.6128C21.7264 47.0171 28.6888 36.2738 44.0521 35.3056C49.9816 34.9275 53.0064 36.4398 53.0064 36.4398Z" fill="white"/>
</svg>
