<svg width="100" height="100" viewBox="0 0 100 100" fill="none" xmlns="http://www.w3.org/2000/svg">
<path d="M21.0098 63.1921C21.0098 68.9739 16.2866 73.697 10.5049 73.697C4.72313 73.697 0 68.9739 0 63.1921C0 57.4104 4.72313 52.6873 10.5049 52.6873H21.0098V63.1921Z" fill="#E01E5A"/>
<path d="M26.3029 63.1921C26.3029 57.4104 31.0261 52.6873 36.8078 52.6873C42.5896 52.6873 47.3127 57.4104 47.3127 63.1921V89.4951C47.3127 95.2768 42.5896 100 36.8078 100C31.0261 100 26.3029 95.2768 26.3029 89.4951V63.1921Z" fill="#E01E5A"/>
<path d="M36.8078 21.0098C31.0261 21.0098 26.3029 16.2866 26.3029 10.5049C26.3029 4.72313 31.0261 0 36.8078 0C42.5896 0 47.3127 4.72313 47.3127 10.5049V21.0098H36.8078Z" fill="#36C5F0"/>
<path d="M36.8078 26.3029C42.5896 26.3029 47.3127 31.026 47.3127 36.8078C47.3127 42.5896 42.5896 47.3127 36.8078 47.3127H10.5049C4.72313 47.3127 0 42.5896 0 36.8078C0 31.026 4.72313 26.3029 10.5049 26.3029H36.8078Z" fill="#36C5F0"/>
<path d="M78.9902 36.8078C78.9902 31.026 83.7134 26.3029 89.4951 26.3029C95.2769 26.3029 100 31.026 100 36.8078C100 42.5896 95.2769 47.3127 89.4951 47.3127H78.9902V36.8078Z" fill="#2EB67D"/>
<path d="M73.6971 36.8078C73.6971 42.5896 68.9739 47.3127 63.1922 47.3127C57.4104 47.3127 52.6873 42.5896 52.6873 36.8078V10.5049C52.6873 4.72313 57.4104 0 63.1922 0C68.9739 0 73.6971 4.72313 73.6971 10.5049V36.8078Z" fill="#2EB67D"/>
<path d="M63.1922 78.9902C68.9739 78.9902 73.6971 83.7133 73.6971 89.4951C73.6971 95.2768 68.9739 99.9999 63.1922 99.9999C57.4104 99.9999 52.6873 95.2768 52.6873 89.4951V78.9902H63.1922Z" fill="#ECB22E"/>
<path d="M63.1922 73.697C57.4104 73.697 52.6873 68.9739 52.6873 63.1921C52.6873 57.4104 57.4104 52.6873 63.1922 52.6873H89.4951C95.2769 52.6873 100 57.4104 100 63.1921C100 68.9739 95.2769 73.697 89.4951 73.697H63.1922Z" fill="#ECB22E"/>
</svg>
