<svg width="100" height="100" viewBox="0 0 100 100" fill="none" xmlns="http://www.w3.org/2000/svg">
<path d="M50 99.3361L63.9984 20.8508C77.3265 20.8508 81.5457 22.3064 82.1372 28.2469C82.1372 28.2469 91.0883 24.9029 95.5836 18.1756C77.9968 10.032 60.2918 9.67792 60.2918 9.67792L49.9606 22.2277H50L39.7082 9.67792C39.7082 9.67792 22.0031 10.032 4.41638 18.1756C8.91165 24.9422 17.8628 28.2469 17.8628 28.2469C18.4542 22.3064 22.6735 20.8508 35.9227 20.8114L50 99.3361Z" fill="#E82127"/>
<path d="M50 6.05852C64.235 5.94049 80.5205 8.26161 97.2003 15.5004C99.4479 11.4876 100 9.71723 100 9.71723C81.7823 2.51782 64.7082 0.0786821 50 0C35.3312 0.0786821 18.2571 2.51782 0 9.71723C0 9.71723 0.828077 11.881 2.79969 15.5004C19.4795 8.22227 35.765 5.94049 50 6.05852Z" fill="#E82127"/>
</svg>
