<svg width="65" height="70" viewBox="0 0 65 70" fill="none" xmlns="http://www.w3.org/2000/svg">
<path d="M42.3945 38.1436C45.4247 38.1436 47.8809 40.5998 47.8809 43.6299C47.8807 46.1533 46.177 48.2774 43.8571 48.9173C43.4426 49.0317 43.1003 49.3477 43.0124 49.7687C42.8411 50.5891 42.6291 51.4558 42.3672 52.3398C41.5777 55.0042 40.3076 57.9867 38.3066 60.3524C38.291 60.3708 38.2634 60.3731 38.245 60.3574C38.208 60.3259 38.1526 60.3706 38.1746 60.414C38.614 61.2834 38.8622 62.2659 38.8623 63.3066C38.8623 66.8552 35.9851 69.7324 32.4365 69.7324C28.8881 69.7322 26.0117 66.855 26.0117 63.3066C26.0119 59.7584 28.8882 56.882 32.4365 56.8818C33.2125 56.8818 33.956 57.0203 34.6445 57.2728C35.0895 57.436 35.6063 57.3392 35.8804 56.9525C37.0591 55.2899 37.9281 53.2428 38.5322 51.2041C38.7837 50.3555 38.9821 49.528 39.1376 48.7581C39.2149 48.3754 39.0471 47.9916 38.7551 47.7325C37.6226 46.7278 36.9083 45.2629 36.9082 43.6299C36.9082 40.5998 39.3644 38.1436 42.3945 38.1436ZM29.3887 42.208C32.4188 42.208 34.875 44.6642 34.875 47.6943C34.8748 50.7243 32.4187 53.1807 29.3887 53.1807C27.928 53.1806 26.6014 52.609 25.6185 51.6779C25.2968 51.3731 24.8316 51.246 24.418 51.4052C23.3695 51.8088 22.1792 52.2064 20.9072 52.5371C18.4373 53.1792 15.5289 53.6106 12.7011 53.2953C12.3244 53.2533 11.955 53.4152 11.7082 53.7029C10.5301 55.0763 8.78348 55.9473 6.83203 55.9473C3.28359 55.9471 0.407288 53.0708 0.407227 49.5225C0.407227 45.974 3.28355 43.0978 6.83203 43.0977C10.0186 43.0977 12.6612 45.417 13.1673 48.4598C13.2496 48.9547 13.625 49.3738 14.1263 49.3919C16.0116 49.4599 18.017 49.1559 19.9014 48.666C21.1833 48.3327 22.364 47.9251 23.3546 47.5281C23.7022 47.3887 23.9272 47.0583 23.9953 46.69C24.4669 44.1396 26.7016 42.2081 29.3887 42.208ZM45.2393 24.7314C48.2693 24.7314 50.7255 27.1877 50.7256 30.2178C50.7256 30.6418 50.6771 31.0545 50.5857 31.4508C50.4917 31.8584 50.5984 32.2964 50.9089 32.5768C51.9882 33.5514 53.263 34.8529 54.4795 36.376C55.7044 37.9096 56.9205 39.7313 57.8106 41.7238C57.9669 42.0736 58.3007 42.3088 58.6788 42.3705C61.731 42.869 64.0605 45.5169 64.0605 48.71C64.0605 52.2584 61.1833 55.1348 57.6348 55.1348C54.0863 55.1346 51.21 52.2583 51.21 48.71C51.21 46.757 52.0816 45.0081 53.4568 43.8299C53.8316 43.5087 53.9965 42.9827 53.7707 42.5437C53.1079 41.2559 52.2648 40.0118 51.3545 38.8721C50.2734 37.5186 49.1469 36.3748 48.2287 35.5458C47.929 35.2753 47.496 35.2341 47.1168 35.3727C46.5311 35.5867 45.8991 35.7041 45.2393 35.7041C42.2092 35.704 39.7529 33.2479 39.7529 30.2178C39.753 27.1878 42.2092 24.7315 45.2393 24.7314ZM6.42578 13.4316C9.97433 13.4317 12.8506 16.308 12.8506 19.8564C12.8506 21.849 11.9431 23.6284 10.5193 24.8066C10.1493 25.1127 9.97346 25.617 10.1786 26.0512C11.0361 27.8664 12.3594 29.6041 13.8018 31.1162C14.5308 31.8805 15.2705 32.5649 15.9603 33.1521C16.2758 33.4207 16.7231 33.4467 17.1051 33.2862C17.7579 33.012 18.475 32.8604 19.2275 32.8604C22.2577 32.8604 24.7139 35.3166 24.7139 38.3467C24.7137 41.3767 22.2576 43.833 19.2275 43.833C16.1975 43.8329 13.7414 41.3766 13.7412 38.3467C13.7412 38.0139 13.7705 37.6878 13.8269 37.3711C13.8988 36.9681 13.7778 36.5449 13.4652 36.2807C12.6428 35.5856 11.7674 34.7776 10.9082 33.877C8.98648 31.8623 7.02728 29.2703 5.97261 26.3505C5.96777 26.337 5.97472 26.3222 5.98813 26.3174C6.01471 26.3077 6.00845 26.2678 5.98025 26.2659C2.63948 26.0371 5.89907e-05 23.2552 0 19.8564C0 16.3079 2.87718 13.4316 6.42578 13.4316ZM31.0244 0C34.5729 0 37.45 2.87645 37.4502 6.4248C37.4502 9.97333 34.573 12.8506 31.0244 12.8506C30.1492 12.8506 29.3149 12.6753 28.5546 12.3583C28.0539 12.1495 27.4497 12.2786 27.1859 12.7526C26.4034 14.1587 25.7991 15.7362 25.3506 17.3066C25.1435 18.0318 24.9743 18.741 24.837 19.4121C24.7508 19.8334 24.9614 20.2511 25.3085 20.5051C26.6727 21.5031 27.5586 23.1157 27.5586 24.9355C27.5584 27.9655 25.1023 30.4219 22.0723 30.4219C19.0423 30.4217 16.5861 27.9654 16.5859 24.9355C16.5859 22.5969 18.0492 20.5997 20.1102 19.81C20.4792 19.6687 20.7717 19.3632 20.8466 18.9752C21.0161 18.0975 21.2321 17.163 21.5049 16.208C22.1618 13.9078 23.1733 11.3691 24.7035 9.18524C24.9015 8.90267 24.9482 8.54226 24.8522 8.21083C24.6881 7.64382 24.5996 7.04462 24.5996 6.4248C24.5998 2.87654 27.4761 0.000141727 31.0244 0ZM57.2285 12.6162C60.777 12.6162 63.6541 15.4927 63.6543 19.041C63.6543 22.5895 60.7771 25.4668 57.2285 25.4668C54.0486 25.4668 51.4099 23.1566 50.8959 20.1232C50.8096 19.6141 50.4135 19.1876 49.8972 19.1853C48.2298 19.178 46.49 19.4343 44.8398 19.833C43.4461 20.1698 42.1696 20.5963 41.1247 21.0059C40.7719 21.1443 40.5437 21.4791 40.4764 21.852C40.0142 24.414 37.7744 26.3574 35.0791 26.3574C32.049 26.3574 29.5928 23.9012 29.5928 20.8711C29.5929 17.8411 32.049 15.3848 35.0791 15.3848C36.5311 15.3848 37.8507 15.9493 38.8319 16.8703C39.1519 17.1708 39.6119 17.2964 40.0225 17.1414C41.1595 16.7125 42.4807 16.2883 43.9004 15.9453C46.1725 15.3964 48.8097 15.0307 51.4056 15.2526C51.7702 15.2838 52.1237 15.1239 52.3627 14.8468C53.5408 13.4811 55.2833 12.6162 57.2285 12.6162Z" fill="black"/>
</svg>
