<svg width="56" height="56" viewBox="0 0 56 56" fill="none" xmlns="http://www.w3.org/2000/svg">
<path d="M0 8.86384C0 5.7612 0 4.20989 0.603813 3.02484C1.13494 1.98244 1.98244 1.13494 3.02484 0.603813C4.20989 0 5.7612 0 8.86384 0H46.5352C49.6378 0 51.1891 0 52.3742 0.603813C53.4166 1.13494 54.2641 1.98244 54.7952 3.02484C55.399 4.20989 55.399 5.7612 55.399 8.86384V46.5352C55.399 49.6378 55.399 51.1891 54.7952 52.3742C54.2641 53.4166 53.4166 54.264 52.3742 54.7952C51.1891 55.399 49.6378 55.399 46.5352 55.399H8.86384C5.7612 55.399 4.20989 55.399 3.02484 54.7952C1.98244 54.264 1.13494 53.4166 0.603813 52.3742C0 51.1891 0 49.6378 0 46.5352V8.86384Z" fill="#171717"/>
<path d="M46.5341 53.8452V55.4H8.86339V53.8452H46.5341ZM53.8452 46.5341V8.86339C53.8452 7.28675 53.8436 6.19769 53.7745 5.35191C53.7068 4.52418 53.5822 4.06596 53.4104 3.72889C53.0282 2.97931 52.4183 2.36907 51.6686 1.98706C51.3317 1.81553 50.8748 1.69062 50.0481 1.62302C49.2022 1.55391 48.111 1.55223 46.5341 1.55223H8.86339C7.28683 1.55223 6.19767 1.55393 5.35191 1.62302C4.52418 1.69065 4.06596 1.81531 3.72889 1.98706C2.97922 2.36919 2.36919 2.97922 1.98706 3.72889C1.81531 4.06596 1.69065 4.52418 1.62302 5.35191C1.55393 6.19767 1.55223 7.28683 1.55223 8.86339V46.5341C1.55223 48.111 1.55391 49.2022 1.62302 50.0481C1.69062 50.8748 1.81553 51.3317 1.98706 51.6686C2.36907 52.4183 2.97931 53.0282 3.72889 53.4104C4.06596 53.5822 4.52418 53.7068 5.35191 53.7745C6.19769 53.8436 7.28675 53.8452 8.86339 53.8452V55.4L6.80808 55.3899C5.30826 55.3663 4.29793 55.2843 3.48873 54.9955L3.02609 54.7958C2.11383 54.331 1.34886 53.6237 0.816565 52.7556L0.604207 52.3739C0.00041179 51.1889 0 49.6367 0 46.5341V8.86339C1.19533e-09 6.14888 1.14183e-05 4.62191 0.40449 3.48873L0.604207 3.02609C1.06916 2.11357 1.776 1.34888 2.64436 0.816565L3.02609 0.604207C4.21098 0.000850005 5.76179 1.38174e-09 8.86339 0H46.5341C49.6367 0 51.1889 0.000413488 52.3739 0.604207C53.4163 1.13534 54.2647 1.98369 54.7958 3.02609C55.3989 4.21093 55.4 5.76214 55.4 8.86339V46.5341L55.3899 48.5894C55.3616 50.3901 55.2485 51.4851 54.7958 52.3739L54.5809 52.7556C54.0486 53.6234 53.2859 54.3311 52.3739 54.7958L51.9113 54.9955C51.1017 55.2846 50.0906 55.3663 48.5894 55.3899L46.5341 55.4V53.8452C48.111 53.8452 49.2022 53.8436 50.0481 53.7745C50.8753 53.7068 51.3316 53.5821 51.6686 53.4104C52.4187 53.0282 53.0282 52.4187 53.4104 51.6686C53.5821 51.3316 53.7068 50.8753 53.7745 50.0481C53.8436 49.2022 53.8452 48.111 53.8452 46.5341Z" fill="#FAFAFA"/>
<path d="M15.2 31.4292V13.3999H21.3507V30.5504C21.3507 35.3413 23.2498 37.7508 27.0197 37.7508C31.5548 37.7508 34.1342 33.8955 34.1342 29.2464V13.3999H40.2V41.4928H34.3609V37.7792H34.2759C33.2555 39.962 30.3644 42.3999 25.5741 42.3999C19.9335 42.3999 15.2 39.1115 15.2 31.4292Z" fill="white"/>
</svg>
