<svg width="53" height="53" viewBox="0 0 53 53" fill="none" xmlns="http://www.w3.org/2000/svg">
<path d="M11.2471 5.47776e-09C12.3672 1.1291e-08 12.9276 -0.000213528 13.3555 0.217773C13.7317 0.409525 14.0378 0.715521 14.2295 1.0918C14.4473 1.51955 14.4473 2.07951 14.4473 3.19922V11.2412C14.4473 11.4906 14.4467 11.7126 14.4443 11.9111L22.7988 20.2656C23.8773 19.6247 25.1368 19.2569 26.4824 19.2568C27.9191 19.2568 29.257 19.6771 30.3818 20.4004L38.5215 12.2617C38.5123 11.9895 38.5117 11.6671 38.5117 11.2773V3.23535C38.5117 2.11551 38.5125 1.5557 38.7305 1.12793C38.9222 0.751609 39.2282 0.445652 39.6045 0.253906C40.0323 0.0360327 40.5921 0.0361328 41.7119 0.0361328H49.7539C50.874 0.0361328 51.4345 0.0359193 51.8623 0.253906C52.2386 0.445659 52.5446 0.751662 52.7363 1.12793C52.9542 1.55568 52.9541 2.11567 52.9541 3.23535V11.2773C52.9541 12.3974 52.9543 12.9579 52.7363 13.3857C52.5446 13.762 52.2386 14.068 51.8623 14.2598C51.4345 14.4778 50.874 14.4775 49.7539 14.4775H41.7119C41.4624 14.4775 41.2407 14.477 41.042 14.4746L32.7031 22.8125C33.3376 23.8871 33.7031 25.1393 33.7031 26.4775C33.7031 26.7389 33.6882 26.9968 33.6611 27.251C33.5538 28.3082 33.2156 29.2965 32.7021 30.1689L41.0479 38.5146C41.2465 38.5122 41.4683 38.5127 41.7178 38.5127H49.7598C50.8796 38.5127 51.4394 38.5126 51.8672 38.7305C52.2435 38.9222 52.5495 39.2282 52.7412 39.6045C52.9592 40.0323 52.96 40.592 52.96 41.7119V49.7539C52.96 50.874 52.9592 51.4345 52.7412 51.8623C52.5495 52.2385 52.2434 52.5446 51.8672 52.7363C51.4394 52.9541 50.8795 52.9541 49.7598 52.9541H41.7178C40.5977 52.9541 40.0372 52.9543 39.6094 52.7363C39.2331 52.5446 38.9271 52.2386 38.7354 51.8623C38.5174 51.4345 38.5176 50.874 38.5176 49.7539V41.7119C38.5176 41.3219 38.5181 40.9998 38.5273 40.7275L30.3838 32.584C29.2574 33.3103 27.9174 33.7333 26.4775 33.7334C25.1316 33.7334 23.8717 33.3649 22.793 32.7236L14.4385 41.0791C14.4409 41.2775 14.4424 41.499 14.4424 41.748V49.79C14.4424 50.9099 14.4415 51.4697 14.2236 51.8975C14.0319 52.2738 13.7259 52.5797 13.3496 52.7715C12.9218 52.9894 12.3621 52.9902 11.2422 52.9902H3.2002C2.08009 52.9902 1.51962 52.9895 1.0918 52.7715C0.715641 52.5797 0.409458 52.2737 0.217773 51.8975C2.4135e-05 51.4697 5.89114e-09 50.9097 5.71453e-09 49.79V41.748C5.71453e-09 40.6279 -0.000213525 40.0675 0.217773 39.6396C0.409511 39.2634 0.715547 38.9574 1.0918 38.7656C1.51962 38.5476 2.08009 38.5479 3.2002 38.5479H11.2422C11.6317 38.5479 11.9535 38.5484 12.2256 38.5576L20.3887 30.3936C19.6727 29.2725 19.2559 27.9415 19.2559 26.5127C19.2559 26.0143 19.3062 25.5276 19.4023 25.0576C19.5801 24.1664 19.9216 23.3348 20.3945 22.5947L12.2305 14.4307C11.9585 14.4398 11.6365 14.4414 11.2471 14.4414H3.20508C2.08537 14.4414 1.52541 14.4415 1.09766 14.2236C0.721383 14.0319 0.415385 13.7259 0.223633 13.3496C0.00564585 12.9218 0.00585937 12.3613 0.00585938 11.2412V3.19922C0.00585939 2.0794 0.00572001 1.51957 0.223633 1.0918C0.41538 0.715473 0.721332 0.40952 1.09766 0.217773C1.52543 -0.000150115 2.08526 1.55336e-09 3.20508 5.47776e-09H11.2471Z" fill="black"/>
</svg>
